<svg xmlns="http://www.w3.org/2000/svg" width="420" height="820" viewBox="0 0 420 820" role="img" aria-label="Acesso">
  <defs>
    <linearGradient id="g" x1="0" y1="0" x2="1" y2="1">
      <stop offset="0" stop-color="#11a7ff"/>
      <stop offset="1" stop-color="#004b86"/>
    </linearGradient>
    <filter id="shadow" x="-20%" y="-20%" width="140%" height="140%">
      <feDropShadow dx="0" dy="22" stdDeviation="18" flood-color="#000" flood-opacity="0.22"/>
    </filter>
  </defs>
  <rect x="56" y="18" width="308" height="784" rx="54" fill="#0f1115" filter="url(#shadow)"/>
  <rect x="74" y="42" width="272" height="736" rx="40" fill="url(#g)"/>
  <rect x="150" y="28" width="120" height="22" rx="11" fill="#1b1f29"/>
  <rect x="92" y="86" width="236" height="118" rx="22" fill="rgba(255,255,255,0.16)" stroke="rgba(255,255,255,0.22)"/>
  <circle cx="162" cy="145" r="34" fill="rgba(255,255,255,0.92)"/>
  <circle cx="258" cy="135" r="26" fill="rgba(255,255,255,0.7)"/>
  <circle cx="288" cy="152" r="20" fill="rgba(255,255,255,0.55)"/>
  <rect x="110" y="230" width="200" height="16" rx="8" fill="rgba(255,255,255,0.92)"/>
  <rect x="110" y="258" width="168" height="12" rx="6" fill="rgba(255,255,255,0.68)"/>
  <rect x="92" y="296" width="236" height="250" rx="18" fill="rgba(255,255,255,0.12)" stroke="rgba(255,255,255,0.18)"/>
  <rect x="110" y="320" width="120" height="12" rx="6" fill="rgba(255,255,255,0.58)"/>
  <rect x="110" y="344" width="186" height="12" rx="6" fill="rgba(255,255,255,0.42)"/>
  <rect x="110" y="388" width="196" height="12" rx="6" fill="rgba(255,255,255,0.58)"/>
  <rect x="110" y="412" width="148" height="12" rx="6" fill="rgba(255,255,255,0.42)"/>
  <rect x="110" y="456" width="176" height="12" rx="6" fill="rgba(255,255,255,0.58)"/>
  <rect x="110" y="480" width="132" height="12" rx="6" fill="rgba(255,255,255,0.42)"/>
  <rect x="104" y="586" width="212" height="56" rx="18" fill="rgba(255,255,255,0.92)"/>
  <path d="M156 614h64" stroke="#03477d" stroke-width="10" stroke-linecap="round"/>
  <path d="M262 600l-12 12 12 12" stroke="#03477d" stroke-width="10" stroke-linecap="round" stroke-linejoin="round"/>
</svg>
