<svg xmlns="http://www.w3.org/2000/svg" width="420" height="820" viewBox="0 0 420 820" role="img" aria-label="Acompanhamento">
  <defs>
    <linearGradient id="g" x1="0" y1="0" x2="1" y2="1">
      <stop offset="0" stop-color="#b7dc20"/>
      <stop offset="1" stop-color="#2f7d0a"/>
    </linearGradient>
    <filter id="shadow" x="-20%" y="-20%" width="140%" height="140%">
      <feDropShadow dx="0" dy="22" stdDeviation="18" flood-color="#000" flood-opacity="0.22"/>
    </filter>
  </defs>
  <rect x="56" y="18" width="308" height="784" rx="54" fill="#0f1115" filter="url(#shadow)"/>
  <rect x="74" y="42" width="272" height="736" rx="40" fill="url(#g)"/>
  <rect x="150" y="28" width="120" height="22" rx="11" fill="#1b1f29"/>
  <rect x="92" y="86" width="236" height="44" rx="16" fill="rgba(255,255,255,0.16)" stroke="rgba(255,255,255,0.22)"/>
  <rect x="110" y="102" width="120" height="12" rx="6" fill="rgba(255,255,255,0.78)"/>
  <circle cx="308" cy="108" r="10" fill="rgba(255,255,255,0.72)"/>
  <rect x="92" y="150" width="236" height="420" rx="20" fill="rgba(255,255,255,0.12)" stroke="rgba(255,255,255,0.18)"/>
  <g fill="rgba(255,255,255,0.92)">
    <circle cx="126" cy="196" r="18"/>
    <circle cx="126" cy="276" r="18"/>
    <circle cx="126" cy="356" r="18"/>
    <circle cx="126" cy="436" r="18"/>
  </g>
  <g fill="rgba(255,255,255,0.6)">
    <rect x="156" y="182" width="152" height="12" rx="6"/>
    <rect x="156" y="206" width="110" height="10" rx="5"/>
    <rect x="156" y="262" width="170" height="12" rx="6"/>
    <rect x="156" y="286" width="126" height="10" rx="5"/>
    <rect x="156" y="342" width="146" height="12" rx="6"/>
    <rect x="156" y="366" width="104" height="10" rx="5"/>
    <rect x="156" y="422" width="160" height="12" rx="6"/>
    <rect x="156" y="446" width="118" height="10" rx="5"/>
  </g>
  <rect x="104" y="602" width="212" height="64" rx="22" fill="rgba(255,255,255,0.92)"/>
  <path d="M152 632c12-16 34-16 46 0" stroke="#235f08" stroke-width="10" stroke-linecap="round"/>
  <path d="M232 626h36" stroke="#235f08" stroke-width="10" stroke-linecap="round"/>
  <path d="M304 634c0 22-18 40-40 40" stroke="rgba(255,255,255,0.58)" stroke-width="8" stroke-linecap="round"/>
</svg>
