<svg xmlns="http://www.w3.org/2000/svg" width="420" height="820" viewBox="0 0 420 820" role="img" aria-label="Cadastro">
  <defs>
    <linearGradient id="g" x1="0" y1="0" x2="1" y2="1">
      <stop offset="0" stop-color="#6b2bd0"/>
      <stop offset="1" stop-color="#3a145f"/>
    </linearGradient>
    <filter id="shadow" x="-20%" y="-20%" width="140%" height="140%">
      <feDropShadow dx="0" dy="22" stdDeviation="18" flood-color="#000" flood-opacity="0.22"/>
    </filter>
  </defs>
  <rect x="56" y="18" width="308" height="784" rx="54" fill="#0f1115" filter="url(#shadow)"/>
  <rect x="74" y="42" width="272" height="736" rx="40" fill="url(#g)"/>
  <rect x="150" y="28" width="120" height="22" rx="11" fill="#1b1f29"/>
  <circle cx="209" cy="76" r="42" fill="rgba(255,255,255,0.14)"/>
  <path d="M209 60c-10 0-18 8-18 18s8 18 18 18 18-8 18-18-8-18-18-18Zm0 44c-24 0-44 12-44 26 0 6 5 10 12 10h64c7 0 12-4 12-10 0-14-20-26-44-26Z" fill="rgba(255,255,255,0.92)"/>
  <rect x="108" y="178" width="204" height="18" rx="9" fill="rgba(255,255,255,0.9)"/>
  <rect x="108" y="210" width="176" height="12" rx="6" fill="rgba(255,255,255,0.68)"/>
  <rect x="92" y="256" width="236" height="88" rx="16" fill="rgba(255,255,255,0.12)" stroke="rgba(255,255,255,0.18)"/>
  <rect x="108" y="276" width="156" height="14" rx="7" fill="rgba(255,255,255,0.72)"/>
  <rect x="108" y="302" width="196" height="12" rx="6" fill="rgba(255,255,255,0.5)"/>
  <rect x="92" y="368" width="236" height="220" rx="16" fill="rgba(255,255,255,0.1)" stroke="rgba(255,255,255,0.16)"/>
  <rect x="108" y="392" width="196" height="12" rx="6" fill="rgba(255,255,255,0.6)"/>
  <rect x="108" y="416" width="168" height="12" rx="6" fill="rgba(255,255,255,0.46)"/>
  <rect x="108" y="456" width="204" height="12" rx="6" fill="rgba(255,255,255,0.6)"/>
  <rect x="108" y="480" width="144" height="12" rx="6" fill="rgba(255,255,255,0.46)"/>
  <rect x="108" y="520" width="184" height="12" rx="6" fill="rgba(255,255,255,0.6)"/>
  <rect x="108" y="544" width="132" height="12" rx="6" fill="rgba(255,255,255,0.46)"/>
  <rect x="276" y="700" width="52" height="52" rx="16" fill="rgba(255,255,255,0.9)"/>
  <path d="M302 712v28m-14-14h28" stroke="#2b1648" stroke-width="6" stroke-linecap="round"/>
</svg>
